inDegrees=no
num_controls=7
num_derivatives=13
num_iterations=205
num_multipliers=7
num_parameters=0
num_slacks=7
num_states=26
objective=5.639450
objective_accelerations=0.616568
objective_balance=0.005902
objective_effort=0.464249
objective_height=4.460227
objective_ligament=0.092504
solver_duration=1692.703268
status=Solve_Succeeded
success=true
DataType=double
version=3
OpenSimVersion=4.4-2022-07-23-0e9fedc
endheader
time	/jointset/ground_pelvis/pelvis_tilt/value	/jointset/ground_pelvis/pelvis_tx/value	/jointset/ground_pelvis/pelvis_ty/value	/jointset/hip_r/hip_flexion_r/value	/jointset/hip_r/hip_adduction_r/value	/jointset/hip_r/hip_rotation_r/value	/jointset/back/lumbar_extension/value	/jointset/patellofemoral_r/patellar_flexion_r/value	/jointset/knee_r/knee_flexion_r/value	/jointset/knee_r/knee_adduction_r/value	/jointset/knee_r/knee_rotation_r/value	/jointset/ankle_r/ankle_angle_r/value	/jointset/subtalar_r/subtalar_angle_r/value	/jointset/ground_pelvis/pelvis_tilt/speed	/jointset/ground_pelvis/pelvis_tx/speed	/jointset/ground_pelvis/pelvis_ty/speed	/jointset/hip_r/hip_flexion_r/speed	/jointset/hip_r/hip_adduction_r/speed	/jointset/hip_r/hip_rotation_r/speed	/jointset/back/lumbar_extension/speed	/jointset/patellofemoral_r/patellar_flexion_r/speed	/jointset/knee_r/knee_flexion_r/speed	/jointset/knee_r/knee_adduction_r/speed	/jointset/knee_r/knee_rotation_r/speed	/jointset/ankle_r/ankle_angle_r/speed	/jointset/subtalar_r/subtalar_angle_r/speed	/forceset/tau_hip_flexion_r	/forceset/tau_hip_adduction_r	/forceset/tau_hip_rotation_r	/forceset/tau_knee_flexion_r	/forceset/tau_ankle_angle_r	/forceset/tau_subtalar_angle_r	/forceset/tau_lumbar_extension	lambda_cid13_p0	lambda_cid14_p0	lambda_cid14_p1	lambda_cid14_p2	lambda_cid14_p3	lambda_cid14_p4	lambda_cid14_p5	/jointset/ground_pelvis/pelvis_tilt/accel	/jointset/ground_pelvis/pelvis_tx/accel	/jointset/ground_pelvis/pelvis_ty/accel	/jointset/hip_r/hip_flexion_r/accel	/jointset/hip_r/hip_adduction_r/accel	/jointset/hip_r/hip_rotation_r/accel	/jointset/back/lumbar_extension/accel	/jointset/patellofemoral_r/patellar_flexion_r/accel	/jointset/knee_r/knee_flexion_r/accel	/jointset/knee_r/knee_adduction_r/accel	/jointset/knee_r/knee_rotation_r/accel	/jointset/ankle_r/ankle_angle_r/accel	/jointset/subtalar_r/subtalar_angle_r/accel	gamma_cid13_p0	gamma_cid14_p0	gamma_cid14_p1	gamma_cid14_p2	gamma_cid14_p3	gamma_cid14_p4	gamma_cid14_p5
0.5	-0.1292050934591489	0.01850950146008676	0.803566871345886	0.9003533025726755	-0.216339726483552	-0.139631809867961	-0.6503653021328762	0.9664652591136963	0.9664652591138881	-0.07801010081664346	0.1745267533016848	0.2924582733707774	0.1481354141214492	-0.3533160930348176	-0.2048320777515429	-0.5160099468030364	1.884680631475268	-0.04731248065244754	0.2006102654305222	-0.7358448852242591	1.966211935407451	1.966211935407536	-0.3968879672304588	0.0008307686105283263	0.5298972675495317	0.1426779089708678	-0.1930051144047593	-0.001790326597652003	0.01805641024496195	-0.3031898997159838	0.01920081620716948	0.005768012562193434	0.2388243574501403	-8.056912707556148	-36.05319946550706	-2.938451583737002	-0.1023805455214569	-5.872370600881649	-641.8143213201869	69.98366792396303	0.3807682161175225	0.6403621040282934	-0.4164546638079331	-1.338857596206218	-0.1527672214601109	-0.3611917913685331	1.877371432122593	-1.347490543685752	-1.347490543685596	0.5340487267808361	-0.1187904264136886	-0.5477877774124933	-0.3236985153975135	-6.690123063464875e-08	1.179456053443552e-07	1.825963325417977e-06	5.065067534016659e-07	-2.435412215199888e-07	-1.35741270315119e-07	1.221205362683571e-06
0.51	-0.1327184745305924	0.01649336605012578	0.7983871462026582	0.9191302888823364	-0.216820970734395	-0.137646162715071	-0.6576292548525726	0.9860568675815632	0.9860568675816929	-0.08195250045738331	0.1745318172734329	0.297728771141976	0.1495447469100582	-0.3493021614189923	-0.1983786922226702	-0.5198183314375924	1.870460385975856	-0.04894778377287373	0.1965048570281672	-0.7168604591791878	1.951842501254662	1.951842501254756	-0.3915248903088203	0.000242183962710701	0.5241168618049828	0.1391217348731923	-0.1993565838036515	-0.001066727535120899	0.01837621156987353	-0.3083592422637287	0.01838306402226058	0.006165505987514007	0.2448233244030158	-7.113646529936603	-36.63450497040829	-3.013822366235813	0.07665351831270388	-5.800340377149026	-646.9300384395331	70.4398106053048	0.420418458798426	0.6502230866302313	-0.3455442520298122	-1.502024622824808	-0.1704344709546688	-0.4374491649794486	1.921758121100428	-1.521745939077406	-1.521745939076237	0.5477533365706301	-0.01970414215924885	-0.606032333326057	-0.3812528211654306	-5.764583899759801e-08	1.333268081303588e-07	1.840797737347097e-06	5.986933771049361e-07	-2.529042800788183e-07	-1.285086321186775e-07	1.265345392332323e-06
0.52	-0.1361899737209825	0.01454224375731628	0.7931728344353347	0.9377573894177991	-0.2173188725391657	-0.135702016406266	-0.6647008073257388	1.005496766490303	1.005496766490369	-0.08583920609656341	0.1745328330670185	0.3029388917836587	0.1509165827648478	-0.3449397168238287	-0.191829454321247	-0.5229272716221722	1.854703476635803	-0.05064399143813434	0.1923100966133933	-0.6973648359180754	1.935870023581793	1.935870023581894	-0.385749166918571	2.113298715459471e-05	0.5178218416464339	0.1351785222070022	-0.2057080532025436	-0.0003431284725826058	0.01869601289482071	-0.3135285848114712	0.01756531183735254	0.006562999412844947	0.2508222913558901	-6.231721815552674	-37.21279682996104	-3.081460055691944	0.2462249356981832	-5.759772888573264	-652.0219045784107	70.91931137942873	0.45047081198516	0.6595325785383823	-0.2765657738126749	-1.646190364334351	-0.1649481304269696	-0.3790621938522745	1.979610875330851	-1.668099247701806	-1.668099247701792	0.616578020502986	-0.04528369196147455	-0.6507106602125347	-0.4011062291003865	-4.835641306290631e-08	1.417401137380703e-07	1.792553129950037e-06	6.277106929152672e-07	-2.537881187872607e-07	-1.209546253454756e-07	1.277274848571547e-06
0.53	-0.1396161884603388	0.01265703062309076	0.7879309697109277	0.9562193913697205	-0.2178338303976015	-0.133799754464029	-0.6715749531832486	1.024769054479862	1.024769054480107	-0.08966618931048251	0.1745328183816711	0.3080835965770582	0.1522473696273414	-0.3402487936009654	-0.18520257009269	-0.5253239429884243	1.837446265048966	-0.05233878862892089	0.1881757210066131	-0.6773944204984189	1.918329120843717	1.918329120843825	-0.3795793867552335	-2.152762614224425e-05	0.5110433459194135	0.1309438708499945	-0.2119231307407001	8.407305716469608e-05	0.01897433696321303	-0.3189005774650926	0.01671331747345325	0.007070116169531299	0.256684539789356	-5.411725385611798	-37.80271830570347	-3.083136636988153	0.3819914604302336	-5.662061386857801	-657.2407069558935	71.589973176379	0.486589393417095	0.6658058592149247	-0.2029816747849608	-1.803061682928495	-0.1702456644782232	-0.4256824445971066	2.016244138119415	-1.835845114364664	-1.835845114363641	0.627624896069276	0.01680328376608684	-0.702830388020476	-0.4395390532828642	-3.898612936486965e-08	1.496392909920676e-07	1.734474708030131e-06	6.594483192111472e-07	-2.535135394159617e-07	-1.114088392996901e-07	1.278723671631638e-06
0.54	-0.1429938567042719	0.01083839423399097	0.7826687855015075	0.9745013061803588	-0.21836543625816	-0.1319378477179561	-0.6782472974339948	1.043858181576538	1.043858181576964	-0.09342938534640771	0.1745324891959644	0.3131582341413723	0.1535348310834086	-0.3352304177388936	-0.1785141052961015	-0.5269911686248205	1.818686048379327	-0.05397359186266432	0.1842390573795834	-0.6570045145653086	1.899237845005475	1.899237845005589	-0.3729917313190911	-4.176704824436568e-05	0.5038083958294448	0.1265134409217109	-0.2181382082788554	0.000511274586934579	0.01925266103167882	-0.3242725701187084	0.01586132310955847	0.007577232926253438	0.2625467882228212	-4.65365996157743	-38.38992746801771	-3.076391895590098	0.5073400031256446	-5.597137955076618	-662.4467729253928	72.28439206169391	0.5159613398268571	0.6718486921446871	-0.1306766278415012	-1.946791380894803	-0.1529493390183627	-0.3395197979021717	2.063508978021611	-1.978173867734929	-1.978173867735027	0.7001530750640009	-0.04079945372250526	-0.7420015328022225	-0.4402619433555651	-2.952638601377049e-08	1.569696453866363e-07	1.665516321106223e-06	6.941956507250814e-07	-2.519573059989913e-07	-9.965938256934402e-08	1.268576900536092e-06
0.55	-0.14631981760119	0.009086869530306628	0.777393565100855	0.9925883860969196	-0.2189129847845283	-0.130114418809289	-0.684713788214935	1.062748849293086	1.062748849293468	-0.09712496769454521	0.1745319811737361	0.3181583507788354	0.1547772002655461	-0.3299127621370325	-0.1717877217809774	-0.5279309313513151	1.798495838037659	-0.05552131321928715	0.180465306001037	-0.6362442048651941	1.878651964982504	1.878651964982532	-0.3660795674341061	-5.248379454173796e-05	0.4961476646398482	0.1219376690296687	-0.2241104652521119	0.00102726321673404	0.01945730025198938	-0.3297035224356008	0.01500192479698996	0.007956717992907232	0.2681408304654602	-3.957308876567485	-38.98847426786747	-3.13399082401963	0.6508589121899635	-5.438620243699975	-667.5657657505421	72.8455885499159	0.5470397830091104	0.6734500084719389	-0.05734772201571851	-2.090226391419374	-0.1532881655768573	-0.3935668731452093	2.089707479646175	-2.135350194593367	-2.135350194606218	0.6937305102988262	0.02008901811011058	-0.7882376751119318	-0.4693051318387519	-2.0983046266481e-08	1.627275723133689e-07	1.595627287350178e-06	7.166929487206796e-07	-2.495434571654954e-07	-8.917960415427421e-08	1.25714824837042e-06
0.5600000000000001	-0.1495911275195617	0.007402692027228713	0.7721126027475452	1.01046654580394	-0.21947553145078	-0.1283281802274734	-0.6909711927961462	1.081426347184406	1.081426347184735	-0.100750031910815	0.1745316253447327	0.3230798343517879	0.1559731976648212	-0.3243002220294352	-0.1650446651748159	-0.5281395591563093	1.776902006471328	-0.05697321983961285	0.1768009920099168	-0.615187274619488	1.856603879958923	1.856603879958866	-0.3588881049457978	-1.13284130984264e-05	0.4880817829273088	0.1172390843492171	-0.2300827222253697	0.001543251846525792	0.01966193947226193	-0.3351344747524977	0.01414252648441937	0.008336203059548637	0.2737348727080982	-3.321876172708408	-39.58552349465737	-3.184225942044836	0.7850934080583437	-5.311928415803434	-672.6892498745632	73.427025732226	0.5749382409740944	0.6751833103521435	0.01555035645859211	-2.22751562582731	-0.1337863917589316	-0.3176323204169283	2.122833087139953	-2.270614867857012	-2.270614867856818	0.7560127957286656	-0.03042502817439968	-0.8230316373907819	-0.4648245010374132	-1.353939084376307e-08	1.66598586278698e-07	1.524621477395569e-06	7.244902064942746e-07	-2.461004698321689e-07	-8.022343971753591e-08	1.244181338920597e-06
